<svg width="32" height="23" viewBox="0 0 32 23" fill="none" xmlns="http://www.w3.org/2000/svg">
<path d="M0.225148 22.334V19.1243L7.67298 11.4583C9.07529 9.99365 10.166 8.56017 10.166 7.09554C10.166 5.35044 8.9818 4.25975 7.33019 4.25975C5.64742 4.25975 4.40092 5.25695 3.68418 6.81508L0.0693359 4.69603C1.47165 1.57978 4.30743 0.0839844 7.26787 0.0839844C11.0074 0.0839844 14.4664 2.57698 14.4664 6.93973C14.4664 9.58854 12.9394 11.8634 10.8827 13.9201L6.61345 18.1894H14.8092V22.334H0.225148Z" fill="white"/>
<path d="M16.7802 22.334V19.1243L24.228 11.4583C25.6303 9.99365 26.721 8.56017 26.721 7.09554C26.721 5.35044 25.5369 4.25975 23.8853 4.25975C22.2025 4.25975 20.956 5.25695 20.2392 6.81508L16.6244 4.69603C18.0267 1.57978 20.8625 0.0839844 23.8229 0.0839844C27.5624 0.0839844 31.0215 2.57698 31.0215 6.93973C31.0215 9.58854 29.4945 11.8634 27.4378 13.9201L23.1685 18.1894H31.3642V22.334H16.7802Z" fill="white"/>
</svg>
