<svg width="44" height="44" viewBox="0 0 44 44" fill="none" xmlns="http://www.w3.org/2000/svg">
<rect x="0.419922" y="0.357422" width="43.2969" height="43.2969" rx="2" fill="#C92C93"/>
<path d="M6.70164 32.9579V29.8099L14.0062 22.2913C15.3816 20.8548 16.4513 19.4489 16.4513 18.0125C16.4513 16.3009 15.2899 15.2312 13.6701 15.2312C12.0196 15.2312 10.7971 16.2092 10.0942 17.7374L6.54883 15.6591C7.92417 12.6028 10.7054 11.1357 13.6089 11.1357C17.2765 11.1357 20.669 13.5808 20.669 17.8596C20.669 20.4575 19.1714 22.6886 17.1543 24.7058L12.9671 28.893H21.0052V32.9579H6.70164Z" fill="white"/>
<path d="M35.3506 21.8329C37.2455 22.9637 38.3152 24.8281 38.3152 26.998C38.3152 30.9407 35.3811 33.3857 30.6438 33.3857C25.876 33.3857 22.9725 30.9407 22.9725 26.998C22.9725 24.8281 24.0422 22.9637 25.9065 21.8329C24.5618 20.8548 23.6754 19.3878 23.6754 17.4012C23.6754 13.2752 26.8846 11.1357 30.6438 11.1357C34.4031 11.1357 37.5817 13.2752 37.5817 17.4012C37.5817 19.3878 36.7259 20.8548 35.3506 21.8329ZM30.6438 15.109C29.0546 15.109 27.8932 16.0259 27.8932 17.6151C27.8932 19.1739 29.0546 20.1519 30.6438 20.1519C32.2331 20.1519 33.3945 19.1739 33.3945 17.6151C33.3945 16.0259 32.2331 15.109 30.6438 15.109ZM30.6438 29.4125C32.661 29.4125 34.128 28.3734 34.128 26.4479C34.128 24.553 32.661 23.5138 30.6438 23.5138C28.6267 23.5138 27.1596 24.553 27.1596 26.4479C27.1596 28.3734 28.6267 29.4125 30.6438 29.4125Z" fill="white"/>
</svg>
